<mxfile host="65bd71144e">
    <diagram id="6eBe2NG_Hpl9Vj3wN6Bc" name="PÃ¡gina-1">
        <mxGraphModel dx="1261" dy="306" grid="1" gridSize="10" guides="1" tooltips="1" connect="1" arrows="1" fold="1" page="1" pageScale="1" pageWidth="827" pageHeight="1169" math="0" shadow="0">
            <root>
                <mxCell id="0"/>
                <mxCell id="1" parent="0"/>
                <mxCell id="28" value="" style="edgeStyle=none;html=1;" edge="1" parent="1" source="2" target="5">
                    <mxGeometry relative="1" as="geometry"/>
                </mxCell>
                <mxCell id="2" value="&lt;font color=&quot;#000000&quot;&gt;INICIO&lt;/font&gt;" style="ellipse;whiteSpace=wrap;html=1;fillColor=#99FF33;" parent="1" vertex="1">
                    <mxGeometry x="190" y="20" width="100" height="60" as="geometry"/>
                </mxCell>
                <mxCell id="4" value="&lt;font color=&quot;#000000&quot;&gt;x,y&lt;/font&gt;" style="shape=parallelogram;perimeter=parallelogramPerimeter;whiteSpace=wrap;html=1;fixedSize=1;fillColor=#FF8000;" parent="1" vertex="1">
                    <mxGeometry x="195" y="110" width="90" height="40" as="geometry"/>
                </mxCell>
                <mxCell id="29" style="edgeStyle=orthogonalEdgeStyle;html=1;exitX=1;exitY=0.5;exitDx=0;exitDy=0;entryX=0.5;entryY=0;entryDx=0;entryDy=0;" edge="1" parent="1" source="5" target="8">
                    <mxGeometry relative="1" as="geometry"/>
                </mxCell>
                <mxCell id="47" style="edgeStyle=orthogonalEdgeStyle;html=1;exitX=0;exitY=0.5;exitDx=0;exitDy=0;fontColor=#000000;" edge="1" parent="1" source="5" target="9">
                    <mxGeometry relative="1" as="geometry"/>
                </mxCell>
                <mxCell id="5" value="&lt;font color=&quot;#000000&quot;&gt;x==0&lt;/font&gt;" style="rhombus;whiteSpace=wrap;html=1;fillColor=#FFFF33;" parent="1" vertex="1">
                    <mxGeometry x="205" y="170" width="65" height="70" as="geometry"/>
                </mxCell>
                <mxCell id="30" style="edgeStyle=orthogonalEdgeStyle;html=1;exitX=0;exitY=0.5;exitDx=0;exitDy=0;" edge="1" parent="1" source="8">
                    <mxGeometry relative="1" as="geometry">
                        <mxPoint x="300" y="340" as="targetPoint"/>
                    </mxGeometry>
                </mxCell>
                <mxCell id="31" style="edgeStyle=orthogonalEdgeStyle;html=1;exitX=1;exitY=0.5;exitDx=0;exitDy=0;entryX=0.5;entryY=0;entryDx=0;entryDy=0;" edge="1" parent="1" source="8">
                    <mxGeometry relative="1" as="geometry">
                        <mxPoint x="500" y="340" as="targetPoint"/>
                    </mxGeometry>
                </mxCell>
                <mxCell id="8" value="&lt;font color=&quot;#000000&quot;&gt;y==0&lt;/font&gt;" style="rhombus;whiteSpace=wrap;html=1;fillColor=#FFFF33;" parent="1" vertex="1">
                    <mxGeometry x="350" y="260" width="70" height="70" as="geometry"/>
                </mxCell>
                <mxCell id="32" style="edgeStyle=orthogonalEdgeStyle;html=1;exitX=1;exitY=0.5;exitDx=0;exitDy=0;entryX=0.5;entryY=0;entryDx=0;entryDy=0;" edge="1" parent="1" source="9" target="13">
                    <mxGeometry relative="1" as="geometry"/>
                </mxCell>
                <mxCell id="33" style="edgeStyle=orthogonalEdgeStyle;html=1;exitX=0;exitY=0.5;exitDx=0;exitDy=0;entryX=0.5;entryY=0;entryDx=0;entryDy=0;" edge="1" parent="1" source="9" target="14">
                    <mxGeometry relative="1" as="geometry"/>
                </mxCell>
                <mxCell id="9" value="&lt;font color=&quot;#000000&quot;&gt;y==0&lt;/font&gt;" style="rhombus;whiteSpace=wrap;html=1;fillColor=#FFFF33;" parent="1" vertex="1">
                    <mxGeometry x="80" y="260" width="70" height="70" as="geometry"/>
                </mxCell>
                <mxCell id="11" value="Eje Y" style="shape=document;whiteSpace=wrap;html=1;boundedLbl=1;fillColor=#CC99FF;" parent="1" vertex="1">
                    <mxGeometry x="270" y="340" width="80" height="40" as="geometry"/>
                </mxCell>
                <mxCell id="13" value="Eje x" style="shape=document;whiteSpace=wrap;html=1;boundedLbl=1;fillColor=#66B2FF;strokeColor=#6c8ebf;" parent="1" vertex="1">
                    <mxGeometry x="170" y="340" width="84" height="40" as="geometry"/>
                </mxCell>
                <mxCell id="34" style="edgeStyle=orthogonalEdgeStyle;html=1;exitX=1;exitY=0.5;exitDx=0;exitDy=0;entryX=0.5;entryY=0;entryDx=0;entryDy=0;" edge="1" parent="1" source="14" target="15">
                    <mxGeometry relative="1" as="geometry"/>
                </mxCell>
                <mxCell id="68" style="edgeStyle=orthogonalEdgeStyle;html=1;exitX=0;exitY=0.5;exitDx=0;exitDy=0;entryX=0.5;entryY=0;entryDx=0;entryDy=0;fontColor=#CC0000;" edge="1" parent="1" source="14" target="22">
                    <mxGeometry relative="1" as="geometry"/>
                </mxCell>
                <mxCell id="14" value="&lt;font color=&quot;#000000&quot;&gt;x&amp;gt;0&lt;/font&gt;" style="rhombus;whiteSpace=wrap;html=1;fillColor=#FFFF33;" parent="1" vertex="1">
                    <mxGeometry x="-20" y="330" width="70" height="70" as="geometry"/>
                </mxCell>
                <mxCell id="35" style="edgeStyle=orthogonalEdgeStyle;html=1;exitX=0;exitY=0.5;exitDx=0;exitDy=0;entryX=0.5;entryY=0;entryDx=0;entryDy=0;" edge="1" parent="1" source="15" target="18">
                    <mxGeometry relative="1" as="geometry"/>
                </mxCell>
                <mxCell id="36" style="edgeStyle=orthogonalEdgeStyle;html=1;exitX=1;exitY=0.5;exitDx=0;exitDy=0;entryX=0.5;entryY=0;entryDx=0;entryDy=0;" edge="1" parent="1" source="15" target="17">
                    <mxGeometry relative="1" as="geometry"/>
                </mxCell>
                <mxCell id="15" value="&lt;font color=&quot;#000000&quot;&gt;y&amp;gt;0&lt;/font&gt;" style="rhombus;whiteSpace=wrap;html=1;fillColor=#FFFF33;strokeColor=#FFFF33;" parent="1" vertex="1">
                    <mxGeometry x="50" y="400" width="70" height="70" as="geometry"/>
                </mxCell>
                <mxCell id="17" value="CADRANTE 1" style="shape=document;whiteSpace=wrap;html=1;boundedLbl=1;fillColor=#9933FF;strokeColor=#9673a6;" parent="1" vertex="1">
                    <mxGeometry x="120" y="470" width="90" height="40" as="geometry"/>
                </mxCell>
                <mxCell id="18" value="CUARANTE 4" style="shape=document;whiteSpace=wrap;html=1;boundedLbl=1;fillColor=#9933FF;" parent="1" vertex="1">
                    <mxGeometry x="-50" y="460" width="90" height="40" as="geometry"/>
                </mxCell>
                <mxCell id="20" value="CUADRANTE 3" style="shape=document;whiteSpace=wrap;html=1;boundedLbl=1;fillColor=#9933FF;" vertex="1" parent="1">
                    <mxGeometry x="-210" y="470" width="100" height="40" as="geometry"/>
                </mxCell>
                <mxCell id="21" value="CUADRANTE 2" style="shape=document;whiteSpace=wrap;html=1;boundedLbl=1;fillColor=#CC99FF;" vertex="1" parent="1">
                    <mxGeometry x="-400" y="470" width="100" height="40" as="geometry"/>
                </mxCell>
                <mxCell id="39" style="edgeStyle=orthogonalEdgeStyle;html=1;exitX=1;exitY=0.5;exitDx=0;exitDy=0;" edge="1" parent="1" source="22" target="20">
                    <mxGeometry relative="1" as="geometry"/>
                </mxCell>
                <mxCell id="52" style="edgeStyle=orthogonalEdgeStyle;html=1;exitX=0;exitY=0.5;exitDx=0;exitDy=0;fontColor=#CC0000;entryX=0.5;entryY=0;entryDx=0;entryDy=0;" edge="1" parent="1" source="22" target="21">
                    <mxGeometry relative="1" as="geometry">
                        <mxPoint x="-310" y="430" as="targetPoint"/>
                    </mxGeometry>
                </mxCell>
                <mxCell id="22" value="&lt;font color=&quot;#000000&quot;&gt;y&amp;lt;0&lt;/font&gt;" style="rhombus;whiteSpace=wrap;html=1;fillColor=#FFFF33;" vertex="1" parent="1">
                    <mxGeometry x="-280" y="400" width="70" height="70" as="geometry"/>
                </mxCell>
                <mxCell id="23" value="&lt;font color=&quot;#000000&quot;&gt;FINAL&lt;/font&gt;" style="ellipse;whiteSpace=wrap;html=1;fillColor=#FF0000;strokeColor=#FF0000;" vertex="1" parent="1">
                    <mxGeometry x="50" y="670" width="115" height="60" as="geometry"/>
                </mxCell>
                <mxCell id="41" value="" style="endArrow=none;html=1;exitX=0.498;exitY=0.992;exitDx=0;exitDy=0;exitPerimeter=0;entryX=0.5;entryY=0.992;entryDx=0;entryDy=0;entryPerimeter=0;" edge="1" parent="1" source="21" target="20">
                    <mxGeometry width="50" height="50" relative="1" as="geometry">
                        <mxPoint x="-280" y="630" as="sourcePoint"/>
                        <mxPoint x="-160" y="560" as="targetPoint"/>
                        <Array as="points">
                            <mxPoint x="-350" y="560"/>
                            <mxPoint x="-160" y="560"/>
                        </Array>
                    </mxGeometry>
                </mxCell>
                <mxCell id="42" value="" style="endArrow=none;html=1;exitX=0.461;exitY=0.909;exitDx=0;exitDy=0;exitPerimeter=0;entryX=0.554;entryY=0.825;entryDx=0;entryDy=0;entryPerimeter=0;" edge="1" parent="1" source="18" target="17">
                    <mxGeometry width="50" height="50" relative="1" as="geometry">
                        <mxPoint x="-10" y="540" as="sourcePoint"/>
                        <mxPoint x="40" y="490" as="targetPoint"/>
                        <Array as="points">
                            <mxPoint x="-9" y="560"/>
                            <mxPoint x="170" y="560"/>
                        </Array>
                    </mxGeometry>
                </mxCell>
                <mxCell id="43" value="" style="endArrow=none;html=1;exitX=0.404;exitY=1.034;exitDx=0;exitDy=0;exitPerimeter=0;entryX=0.498;entryY=0.909;entryDx=0;entryDy=0;entryPerimeter=0;" edge="1" parent="1" source="11">
                    <mxGeometry width="50" height="50" relative="1" as="geometry">
                        <mxPoint x="350" y="500" as="sourcePoint"/>
                        <mxPoint x="499.8399999999999" y="376.36" as="targetPoint"/>
                        <Array as="points">
                            <mxPoint x="302" y="440"/>
                            <mxPoint x="500" y="440"/>
                        </Array>
                    </mxGeometry>
                </mxCell>
                <mxCell id="44" value="" style="endArrow=none;html=1;" edge="1" parent="1">
                    <mxGeometry width="50" height="50" relative="1" as="geometry">
                        <mxPoint x="-260" y="550" as="sourcePoint"/>
                        <mxPoint x="400" y="440" as="targetPoint"/>
                        <Array as="points">
                            <mxPoint x="-260" y="600"/>
                            <mxPoint x="400" y="600"/>
                        </Array>
                    </mxGeometry>
                </mxCell>
                <mxCell id="45" value="" style="endArrow=none;html=1;entryX=0.574;entryY=0.867;entryDx=0;entryDy=0;entryPerimeter=0;" edge="1" parent="1" target="13">
                    <mxGeometry width="50" height="50" relative="1" as="geometry">
                        <mxPoint x="220" y="601" as="sourcePoint"/>
                        <mxPoint x="290" y="326.66668701171875" as="targetPoint"/>
                    </mxGeometry>
                </mxCell>
                <mxCell id="46" value="" style="endArrow=none;html=1;exitX=0.5;exitY=0;exitDx=0;exitDy=0;" edge="1" parent="1" source="23">
                    <mxGeometry width="50" height="50" relative="1" as="geometry">
                        <mxPoint x="110" y="540" as="sourcePoint"/>
                        <mxPoint x="108" y="600" as="targetPoint"/>
                    </mxGeometry>
                </mxCell>
                <mxCell id="48" value="&lt;font color=&quot;#ffffff&quot;&gt;ORIGEN&lt;/font&gt;" style="shape=document;whiteSpace=wrap;html=1;boundedLbl=1;strokeColor=#FFFF33;fontColor=#000000;fillColor=#3399FF;" vertex="1" parent="1">
                    <mxGeometry x="450" y="340" width="90" height="40" as="geometry"/>
                </mxCell>
                <mxCell id="49" value="&lt;font color=&quot;#33ff33&quot;&gt;true&lt;/font&gt;" style="text;html=1;strokeColor=none;fillColor=none;align=center;verticalAlign=middle;whiteSpace=wrap;rounded=0;fontColor=#000000;" vertex="1" parent="1">
                    <mxGeometry x="-220" y="410" width="60" height="30" as="geometry"/>
                </mxCell>
                <mxCell id="53" value="false" style="text;html=1;strokeColor=none;fillColor=none;align=center;verticalAlign=middle;whiteSpace=wrap;rounded=0;fontColor=#CC0000;" vertex="1" parent="1">
                    <mxGeometry x="-360" y="410" width="60" height="30" as="geometry"/>
                </mxCell>
                <mxCell id="54" value="false" style="text;html=1;strokeColor=none;fillColor=none;align=center;verticalAlign=middle;whiteSpace=wrap;rounded=0;fontColor=#CC0000;" vertex="1" parent="1">
                    <mxGeometry x="310" y="270" width="60" height="30" as="geometry"/>
                </mxCell>
                <mxCell id="55" value="false" style="text;html=1;strokeColor=none;fillColor=none;align=center;verticalAlign=middle;whiteSpace=wrap;rounded=0;fontColor=#CC0000;" vertex="1" parent="1">
                    <mxGeometry x="145" y="180" width="60" height="30" as="geometry"/>
                </mxCell>
                <mxCell id="56" value="false" style="text;html=1;strokeColor=none;fillColor=none;align=center;verticalAlign=middle;whiteSpace=wrap;rounded=0;fontColor=#CC0000;" vertex="1" parent="1">
                    <mxGeometry x="30" y="270" width="60" height="30" as="geometry"/>
                </mxCell>
                <mxCell id="57" value="false" style="text;html=1;strokeColor=none;fillColor=none;align=center;verticalAlign=middle;whiteSpace=wrap;rounded=0;fontColor=#CC0000;" vertex="1" parent="1">
                    <mxGeometry y="410" width="60" height="30" as="geometry"/>
                </mxCell>
                <mxCell id="58" value="false" style="text;html=1;strokeColor=none;fillColor=none;align=center;verticalAlign=middle;whiteSpace=wrap;rounded=0;fontColor=#CC0000;" vertex="1" parent="1">
                    <mxGeometry x="-80" y="340" width="60" height="30" as="geometry"/>
                </mxCell>
                <mxCell id="59" value="&lt;font color=&quot;#33ff33&quot;&gt;true&lt;/font&gt;" style="text;html=1;strokeColor=none;fillColor=none;align=center;verticalAlign=middle;whiteSpace=wrap;rounded=0;fontColor=#000000;" vertex="1" parent="1">
                    <mxGeometry x="270" y="180" width="60" height="30" as="geometry"/>
                </mxCell>
                <mxCell id="60" value="&lt;font color=&quot;#33ff33&quot;&gt;true&lt;/font&gt;" style="text;html=1;strokeColor=none;fillColor=none;align=center;verticalAlign=middle;whiteSpace=wrap;rounded=0;fontColor=#000000;" vertex="1" parent="1">
                    <mxGeometry x="430" y="270" width="60" height="30" as="geometry"/>
                </mxCell>
                <mxCell id="61" value="&lt;font color=&quot;#33ff33&quot;&gt;true&lt;/font&gt;" style="text;html=1;strokeColor=none;fillColor=none;align=center;verticalAlign=middle;whiteSpace=wrap;rounded=0;fontColor=#000000;" vertex="1" parent="1">
                    <mxGeometry x="135" y="270" width="60" height="30" as="geometry"/>
                </mxCell>
                <mxCell id="62" value="&lt;font color=&quot;#33ff33&quot;&gt;true&lt;/font&gt;" style="text;html=1;strokeColor=none;fillColor=none;align=center;verticalAlign=middle;whiteSpace=wrap;rounded=0;fontColor=#000000;" vertex="1" parent="1">
                    <mxGeometry x="30" y="340" width="60" height="30" as="geometry"/>
                </mxCell>
                <mxCell id="63" value="&lt;font color=&quot;#33ff33&quot;&gt;true&lt;/font&gt;" style="text;html=1;strokeColor=none;fillColor=none;align=center;verticalAlign=middle;whiteSpace=wrap;rounded=0;fontColor=#000000;" vertex="1" parent="1">
                    <mxGeometry x="110" y="410" width="60" height="30" as="geometry"/>
                </mxCell>
            </root>
        </mxGraphModel>
    </diagram>
</mxfile>